<svg width="2000" height="1400" viewBox="0 0 2000 1400" fill="none" xmlns="http://www.w3.org/2000/svg">
<g clip-path="url(#clip0_1054_94)">
<mask id="mask0_1054_94" style="mask-type:luminance" maskUnits="userSpaceOnUse" x="-1" y="-1" width="2002" height="1402">
<path d="M0 0H2000V1400H0V0Z" fill="url(#paint0_radial_1054_94)" stroke="#4F4F4F" stroke-width="2"/>
</mask>
<g mask="url(#mask0_1054_94)">
<path d="M0 0H100V100H0V0Z" fill="#4F4F4F" fill-opacity="0.568627" stroke="#4F4F4F" stroke-width="2"/>
<path d="M200 0H100V100H200M200 0V100M200 0H300V100H200" stroke="#4F4F4F" stroke-width="2"/>
<path d="M300 0H400V100H300V0Z" fill="#4F4F4F" fill-opacity="0.0784314" stroke="#4F4F4F" stroke-width="2"/>
<path d="M500 0H400V100H500M500 0V100M500 0H600M500 100H600M600 0V100M600 0H700M600 100H700M700 0V100M700 0H800M700 100H800M800 0V100M800 0H900V100H800" stroke="#4F4F4F" stroke-width="2"/>
<path d="M900 0H1000V100H900V0Z" fill="#4F4F4F" fill-opacity="0.588235" stroke="#4F4F4F" stroke-width="2"/>
<path d="M1000 0H1100V100H1000V0Z" fill="#4F4F4F" fill-opacity="0.317647" stroke="#4F4F4F" stroke-width="2"/>
<path d="M1100 0H1200V100H1100V0Z" stroke="#4F4F4F" stroke-width="2"/>
<path d="M1200 0H1300V100H1200V0Z" fill="#4F4F4F" fill-opacity="0.105882" stroke="#4F4F4F" stroke-width="2"/>
<path d="M1400 0H1300V100H1400M1400 0V100M1400 0H1500M1400 100H1500M1500 0V100M1500 0H1600M1500 100H1600M1600 0V100M1600 0H1700M1600 100H1700M1700 0V100M1700 0H1800V100H1700" stroke="#4F4F4F" stroke-width="2"/>
<path d="M1800 0H1900V100H1800V0Z" fill="#4F4F4F" fill-opacity="0.458824" stroke="#4F4F4F" stroke-width="2"/>
<path d="M1900 0H2000V100H1900V0ZM0 100H100V200H0V100Z" stroke="#4F4F4F" stroke-width="2"/>
<path d="M100 100H200V200H100V100Z" fill="#4F4F4F" fill-opacity="0.0117647" stroke="#4F4F4F" stroke-width="2"/>
<path d="M200 100H300V200H200V100Z" fill="#4F4F4F" fill-opacity="0.858824" stroke="#4F4F4F" stroke-width="2"/>
<path d="M300 100H400V200H300V100Z" stroke="#4F4F4F" stroke-width="2"/>
<path d="M400 100H500V200H400V100Z" fill="#4F4F4F" fill-opacity="0.980392" stroke="#4F4F4F" stroke-width="2"/>
<path d="M600 100H500V200H600M600 100V200M600 100H700V200H600" stroke="#4F4F4F" stroke-width="2"/>
<path d="M700 100H800V200H700V100Z" fill="#4F4F4F" fill-opacity="0.341176" stroke="#4F4F4F" stroke-width="2"/>
<path d="M900 100H800V200H900M900 100V200M900 100H1000V200H900" stroke="#4F4F4F" stroke-width="2"/>
<path d="M1000 100H1100V200H1000V100Z" fill="#4F4F4F" fill-opacity="0.243137" stroke="#4F4F4F" stroke-width="2"/>
<path d="M1200 100H1100V200H1200M1200 100V200M1200 100H1300M1200 200H1300M1300 100V200M1300 100H1400M1300 200H1400M1400 100V200M1400 100H1500M1400 200H1500M1500 100V200M1500 100H1600M1500 200H1600M1600 100V200M1600 100H1700V200H1600" stroke="#4F4F4F" stroke-width="2"/>
<path d="M1700 100H1800V200H1700V100Z" fill="#4F4F4F" fill-opacity="0.443137" stroke="#4F4F4F" stroke-width="2"/>
<path d="M1900 100H1800V200H1900M1900 100V200M1900 100H2000V200H1900M100 200H0V300H100M100 200V300M100 200H200M100 300H200M200 200V300M200 200H300V300H200" stroke="#4F4F4F" stroke-width="2"/>
<path d="M300 200H400V300H300V200Z" fill="#4F4F4F" fill-opacity="0.239216" stroke="#4F4F4F" stroke-width="2"/>
<path d="M400 200H500V300H400V200Z" stroke="#4F4F4F" stroke-width="2"/>
<path d="M500 200H600V300H500V200Z" fill="#4F4F4F" fill-opacity="0.0196078" stroke="#4F4F4F" stroke-width="2"/>
<path d="M700 200H600V300H700M700 200V300M700 200H800M700 300H800M800 200V300M800 200H900M800 300H900M900 200V300M900 200H1000M900 300H1000M1000 200V300M1000 200H1100M1000 300H1100M1100 200V300M1100 200H1200M1100 300H1200M1200 200V300M1200 200H1300M1200 300H1300M1300 200V300M1300 200H1400V300H1300" stroke="#4F4F4F" stroke-width="2"/>
<path d="M1400 200H1500V300H1400V200Z" fill="#4F4F4F" fill-opacity="0.509804" stroke="#4F4F4F" stroke-width="2"/>
<path d="M1600 200H1500V300H1600M1600 200V300M1600 200H1700V300H1600" stroke="#4F4F4F" stroke-width="2"/>
<path d="M1700 200H1800V300H1700V200Z" fill="#4F4F4F" fill-opacity="0.364706" stroke="#4F4F4F" stroke-width="2"/>
<path d="M1800 200H1900V300H1800V200Z" fill="#4F4F4F" fill-opacity="0.541176" stroke="#4F4F4F" stroke-width="2"/>
<path d="M1900 200H2000V300H1900V200Z" stroke="#4F4F4F" stroke-width="2"/>
<path d="M0 300H100V400H0V300Z" fill="#4F4F4F" fill-opacity="0.0901961" stroke="#4F4F4F" stroke-width="2"/>
<path d="M200 300H100V400H200M200 300V400M200 300H300M200 400H300M300 300V400M300 300H400V400H300" stroke="#4F4F4F" stroke-width="2"/>
<path d="M400 300H500V400H400V300Z" fill="#4F4F4F" fill-opacity="0.262745" stroke="#4F4F4F" stroke-width="2"/>
<path d="M600 300H500V400H600M600 300V400M600 300H700M600 400H700M700 300V400M700 300H800M700 400H800M800 300V400M800 300H900V400H800" stroke="#4F4F4F" stroke-width="2"/>
<path d="M900 300H1000V400H900V300Z" fill="#4F4F4F" fill-opacity="0.654902" stroke="#4F4F4F" stroke-width="2"/>
<path d="M1000 300H1100V400H1000V300Z" fill="#4F4F4F" fill-opacity="0.407843" stroke="#4F4F4F" stroke-width="2"/>
<path d="M1200 300H1100V400H1200M1200 300V400M1200 300H1300M1200 400H1300M1300 300V400M1300 300H1400M1300 400H1400M1400 300V400M1400 300H1500V400H1400" stroke="#4F4F4F" stroke-width="2"/>
<path d="M1500 300H1600V400H1500V300Z" fill="#4F4F4F" fill-opacity="0.827451" stroke="#4F4F4F" stroke-width="2"/>
<path d="M1600 300H1700V400H1600V300Z" stroke="#4F4F4F" stroke-width="2"/>
<path d="M1700 300H1800V400H1700V300Z" fill="#4F4F4F" fill-opacity="0.596078" stroke="#4F4F4F" stroke-width="2"/>
<path d="M1800 300H1900V400H1800V300Z" fill="#4F4F4F" fill-opacity="0.14902" stroke="#4F4F4F" stroke-width="2"/>
<path d="M1900 300H2000V400H1900V300Z" fill="#4F4F4F" fill-opacity="0.74902" stroke="#4F4F4F" stroke-width="2"/>
<path d="M100 400H0V500H100M100 400V500M100 400H200V500H100" stroke="#4F4F4F" stroke-width="2"/>
<path d="M200 400H300V500H200V400Z" fill="#4F4F4F" fill-opacity="0.415686" stroke="#4F4F4F" stroke-width="2"/>
<path d="M400 400H300V500H400M400 400V500M400 400H500M400 500H500M500 400V500M500 400H600M500 500H600M600 400V500M600 400H700M600 500H700M700 400V500M700 400H800M700 500H800M800 400V500M800 400H900V500H800" stroke="#4F4F4F" stroke-width="2"/>
<path d="M900 400H1000V500H900V400Z" fill="#4F4F4F" fill-opacity="0.192157" stroke="#4F4F4F" stroke-width="2"/>
<path d="M1100 400H1000V500H1100M1100 400V500M1100 400H1200V500H1100" stroke="#4F4F4F" stroke-width="2"/>
<path d="M1200 400H1300V500H1200V400Z" fill="#4F4F4F" fill-opacity="0.686275" stroke="#4F4F4F" stroke-width="2"/>
<path d="M1300 400H1400V500H1300V400Z" fill="#4F4F4F" fill-opacity="0.0941176" stroke="#4F4F4F" stroke-width="2"/>
<path d="M1500 400H1400V500H1500M1500 400V500M1500 400H1600M1500 500H1600M1600 400V500M1600 400H1700M1600 500H1700M1700 400V500M1700 400H1800M1700 500H1800M1800 400V500M1800 400H1900M1800 500H1900M1900 400V500M1900 400H2000V500H1900M0 500H100V600H0V500Z" stroke="#4F4F4F" stroke-width="2"/>
<path d="M100 500H200V600H100V500Z" fill="#4F4F4F" fill-opacity="0.207843" stroke="#4F4F4F" stroke-width="2"/>
<path d="M200 500H300V600H200V500Z" fill="#4F4F4F" fill-opacity="0.470588" stroke="#4F4F4F" stroke-width="2"/>
<path d="M400 500H300V600H400M400 500V600M400 500H500M400 600H500M500 500V600M500 500H600V600H500" stroke="#4F4F4F" stroke-width="2"/>
<path d="M600 500H700V600H600V500Z" fill="#4F4F4F" fill-opacity="0.32549" stroke="#4F4F4F" stroke-width="2"/>
<path d="M700 500H800V600H700V500Z" fill="#4F4F4F" fill-opacity="0.596078" stroke="#4F4F4F" stroke-width="2"/>
<path d="M900 500H800V600H900M900 500V600M900 500H1000M900 600H1000M1000 500V600M1000 500H1100M1000 600H1100M1100 500V600M1100 500H1200M1100 600H1200M1200 500V600M1200 500H1300M1200 600H1300M1300 500V600M1300 500H1400M1300 600H1400M1400 500V600M1400 500H1500M1400 600H1500M1500 500V600M1500 500H1600M1500 600H1600M1600 500V600M1600 500H1700M1600 600H1700M1700 500V600M1700 500H1800M1700 600H1800M1800 500V600M1800 500H1900M1800 600H1900M1900 500V600M1900 500H2000V600H1900" stroke="#4F4F4F" stroke-width="2"/>
<path d="M0 600H100V700H0V600Z" fill="#4F4F4F" fill-opacity="0.580392" stroke="#4F4F4F" stroke-width="2"/>
<path d="M100 600H200V700H100V600Z" fill="#4F4F4F" fill-opacity="0.278431" stroke="#4F4F4F" stroke-width="2"/>
<path d="M200 600H300V700H200V600Z" stroke="#4F4F4F" stroke-width="2"/>
<path d="M300 600H400V700H300V600Z" fill="#4F4F4F" fill-opacity="0.905882" stroke="#4F4F4F" stroke-width="2"/>
<path d="M400 600H500V700H400V600Z" fill="#4F4F4F" fill-opacity="0.772549" stroke="#4F4F4F" stroke-width="2"/>
<path d="M500 600H600V700H500V600Z" fill="#4F4F4F" fill-opacity="0.172549" stroke="#4F4F4F" stroke-width="2"/>
<path d="M700 600H600V700H700M700 600V700M700 600H800M700 700H800M800 600V700M800 600H900M800 700H900M900 600V700M900 600H1000V700H900" stroke="#4F4F4F" stroke-width="2"/>
<path d="M1000 600H1100V700H1000V600Z" fill="#4F4F4F" fill-opacity="0.486275" stroke="#4F4F4F" stroke-width="2"/>
<path d="M1200 600H1100V700H1200M1200 600V700M1200 600H1300M1200 700H1300M1300 600V700M1300 600H1400M1300 700H1400M1400 600V700M1400 600H1500M1400 700H1500M1500 600V700M1500 600H1600V700H1500" stroke="#4F4F4F" stroke-width="2"/>
<path d="M1600 600H1700V700H1600V600Z" fill="#4F4F4F" fill-opacity="0.0117647" stroke="#4F4F4F" stroke-width="2"/>
<path d="M1700 600H1800V700H1700V600Z" fill="#4F4F4F" fill-opacity="0.392157" stroke="#4F4F4F" stroke-width="2"/>
<path d="M1800 600H1900V700H1800V600Z" fill="#4F4F4F" fill-opacity="0.356863" stroke="#4F4F4F" stroke-width="2"/>
<path d="M1900 600H2000V700H1900V600Z" stroke="#4F4F4F" stroke-width="2"/>
<path d="M0 700H100V800H0V700Z" fill="#4F4F4F" fill-opacity="0.121569" stroke="#4F4F4F" stroke-width="2"/>
<path d="M100 700H200V800H100V700Z" stroke="#4F4F4F" stroke-width="2"/>
<path d="M200 700H300V800H200V700Z" fill="#4F4F4F" fill-opacity="0.87451" stroke="#4F4F4F" stroke-width="2"/>
<path d="M400 700H300V800H400M400 700V800M400 700H500V800H400" stroke="#4F4F4F" stroke-width="2"/>
<path d="M500 700H600V800H500V700Z" fill="#4F4F4F" fill-opacity="0.647059" stroke="#4F4F4F" stroke-width="2"/>
<path d="M600 700H700V800H600V700Z" fill="#4F4F4F" fill-opacity="0.223529" stroke="#4F4F4F" stroke-width="2"/>
<path d="M800 700H700V800H800M800 700V800M800 700H900V800H800" stroke="#4F4F4F" stroke-width="2"/>
<path d="M900 700H1000V800H900V700Z" fill="#4F4F4F" fill-opacity="0.870588" stroke="#4F4F4F" stroke-width="2"/>
<path d="M1100 700H1000V800H1100M1100 700V800M1100 700H1200V800H1100" stroke="#4F4F4F" stroke-width="2"/>
<path d="M1200 700H1300V800H1200V700Z" fill="#4F4F4F" fill-opacity="0.65098" stroke="#4F4F4F" stroke-width="2"/>
<path d="M1300 700H1400V800H1300V700Z" stroke="#4F4F4F" stroke-width="2"/>
<path d="M1400 700H1500V800H1400V700Z" fill="#4F4F4F" fill-opacity="0.133333" stroke="#4F4F4F" stroke-width="2"/>
<path d="M1600 700H1500V800H1600M1600 700V800M1600 700H1700V800H1600" stroke="#4F4F4F" stroke-width="2"/>
<path d="M1700 700H1800V800H1700V700Z" fill="#4F4F4F" fill-opacity="0.454902" stroke="#4F4F4F" stroke-width="2"/>
<path d="M1900 700H1800V800H1900M1900 700V800M1900 700H2000V800H1900M100 800H0V900H100M100 800V900M100 800H200M100 900H200M200 800V900M200 800H300M200 900H300M300 800V900M300 800H400M300 900H400M400 800V900M400 800H500M400 900H500M500 800V900M500 800H600M500 900H600M600 800V900M600 800H700M600 900H700M700 800V900M700 800H800M700 900H800M800 800V900M800 800H900M800 900H900M900 800V900M900 800H1000V900H900" stroke="#4F4F4F" stroke-width="2"/>
<path d="M1000 800H1100V900H1000V800Z" fill="#4F4F4F" fill-opacity="0.658824" stroke="#4F4F4F" stroke-width="2"/>
<path d="M1100 800H1200V900H1100V800Z" fill="#4F4F4F" fill-opacity="0.596078" stroke="#4F4F4F" stroke-width="2"/>
<path d="M1300 800H1200V900H1300M1300 800V900M1300 800H1400M1300 900H1400M1400 800V900M1400 800H1500M1400 900H1500M1500 800V900M1500 800H1600M1500 900H1600M1600 800V900M1600 800H1700M1600 900H1700M1700 800V900M1700 800H1800V900H1700" stroke="#4F4F4F" stroke-width="2"/>
<path d="M1800 800H1900V900H1800V800Z" fill="#4F4F4F" fill-opacity="0.443137" stroke="#4F4F4F" stroke-width="2"/>
<path d="M100 900H0V1000H100M100 900V1000M100 900H200M100 1000H200M200 900V1000M200 900H300M200 1000H300M300 900V1000M300 900H400V1000H300M1900 800H2000V900H1900V800Z" stroke="#4F4F4F" stroke-width="2"/>
<path d="M400 900H500V1000H400V900Z" fill="#4F4F4F" fill-opacity="0.733333" stroke="#4F4F4F" stroke-width="2"/>
<path d="M600 900H500V1000H600M600 900V1000M600 900H700V1000H600" stroke="#4F4F4F" stroke-width="2"/>
<path d="M700 900H800V1000H700V900Z" fill="#4F4F4F" fill-opacity="0.964706" stroke="#4F4F4F" stroke-width="2"/>
<path d="M800 900H900V1000H800V900Z" stroke="#4F4F4F" stroke-width="2"/>
<path d="M900 900H1000V1000H900V900Z" fill="#4F4F4F" fill-opacity="0.0352941" stroke="#4F4F4F" stroke-width="2"/>
<path d="M1100 900H1000V1000H1100M1100 900V1000M1100 900H1200M1100 1000H1200M1200 900V1000M1200 900H1300V1000H1200" stroke="#4F4F4F" stroke-width="2"/>
<path d="M1300 900H1400V1000H1300V900Z" fill="#4F4F4F" fill-opacity="0.882353" stroke="#4F4F4F" stroke-width="2"/>
<path d="M1500 900H1400V1000H1500M1500 900V1000M1500 900H1600M1500 1000H1600M1600 900V1000M1600 900H1700M1600 1000H1700M1700 900V1000M1700 900H1800V1000H1700" stroke="#4F4F4F" stroke-width="2"/>
<path d="M1800 900H1900V1000H1800V900Z" fill="#4F4F4F" fill-opacity="0.929412" stroke="#4F4F4F" stroke-width="2"/>
<path d="M1900 900H2000V1000H1900V900Z" fill="#4F4F4F" fill-opacity="0.952941" stroke="#4F4F4F" stroke-width="2"/>
<path d="M0 1000H100V1100H0V1000Z" fill="#4F4F4F" fill-opacity="0.752941" stroke="#4F4F4F" stroke-width="2"/>
<path d="M200 1000H100V1100H200M200 1000V1100M200 1000H300M200 1100H300M300 1000V1100M300 1000H400M300 1100H400M400 1000V1100M400 1000H500M400 1100H500M500 1000V1100M500 1000H600M500 1100H600M600 1000V1100M600 1000H700M600 1100H700M700 1000V1100M700 1000H800V1100H700" stroke="#4F4F4F" stroke-width="2"/>
<path d="M800 1000H900V1100H800V1000Z" fill="#4F4F4F" fill-opacity="0.741176" stroke="#4F4F4F" stroke-width="2"/>
<path d="M1000 1000H900V1100H1000M1000 1000V1100M1000 1000H1100M1000 1100H1100M1100 1000V1100M1100 1000H1200M1100 1100H1200M1200 1000V1100M1200 1000H1300M1200 1100H1300M1300 1000V1100M1300 1000H1400M1300 1100H1400M1400 1000V1100M1400 1000H1500M1400 1100H1500M1500 1000V1100M1500 1000H1600M1500 1100H1600M1600 1000V1100M1600 1000H1700M1600 1100H1700M1700 1000V1100M1700 1000H1800M1700 1100H1800M1800 1000V1100M1800 1000H1900V1100H1800" stroke="#4F4F4F" stroke-width="2"/>
<path d="M1900 1000H2000V1100H1900V1000Z" fill="#4F4F4F" fill-opacity="0.145098" stroke="#4F4F4F" stroke-width="2"/>
<path d="M0 1100H100V1200H0V1100Z" stroke="#4F4F4F" stroke-width="2"/>
<path d="M100 1100H200V1200H100V1100Z" fill="#4F4F4F" fill-opacity="0.745098" stroke="#4F4F4F" stroke-width="2"/>
<path d="M200 1100H300V1200H200V1100Z" fill="#4F4F4F" fill-opacity="0.890196" stroke="#4F4F4F" stroke-width="2"/>
<path d="M300 1100H400V1200H300V1100Z" fill="#4F4F4F" fill-opacity="0.176471" stroke="#4F4F4F" stroke-width="2"/>
<path d="M500 1100H400V1200H500M500 1100V1200M500 1100H600M500 1200H600M600 1100V1200M600 1100H700V1200H600" stroke="#4F4F4F" stroke-width="2"/>
<path d="M700 1100H800V1200H700V1100Z" fill="#4F4F4F" fill-opacity="0.556863" stroke="#4F4F4F" stroke-width="2"/>
<path d="M800 1100H900V1200H800V1100Z" fill="#4F4F4F" fill-opacity="0.137255" stroke="#4F4F4F" stroke-width="2"/>
<path d="M1000 1100H900V1200H1000M1000 1100V1200M1000 1100H1100V1200H1000" stroke="#4F4F4F" stroke-width="2"/>
<path d="M1100 1100H1200V1200H1100V1100Z" fill="#4F4F4F" fill-opacity="0.556863" stroke="#4F4F4F" stroke-width="2"/>
<path d="M1300 1100H1200V1200H1300M1300 1100V1200M1300 1100H1400V1200H1300" stroke="#4F4F4F" stroke-width="2"/>
<path d="M1400 1100H1500V1200H1400V1100Z" fill="#4F4F4F" fill-opacity="0.133333" stroke="#4F4F4F" stroke-width="2"/>
<path d="M1500 1100H1600V1200H1500V1100Z" fill="#4F4F4F" fill-opacity="0.211765" stroke="#4F4F4F" stroke-width="2"/>
<path d="M1700 1100H1600V1200H1700M1700 1100V1200M1700 1100H1800M1700 1200H1800M1800 1100V1200M1800 1100H1900M1800 1200H1900M1900 1100V1200M1900 1100H2000V1200H1900" stroke="#4F4F4F" stroke-width="2"/>
<path d="M0 1200H100V1300H0V1200Z" fill="#4F4F4F" fill-opacity="0.0470588" stroke="#4F4F4F" stroke-width="2"/>
<path d="M100 1200H200V1300H100V1200Z" stroke="#4F4F4F" stroke-width="2"/>
<path d="M200 1200H300V1300H200V1200Z" fill="#4F4F4F" fill-opacity="0.905882" stroke="#4F4F4F" stroke-width="2"/>
<path d="M400 1200H300V1300H400M400 1200V1300M400 1200H500M400 1300H500M500 1200V1300M500 1200H600M500 1300H600M600 1200V1300M600 1200H700M600 1300H700M700 1200V1300M700 1200H800M700 1300H800M800 1200V1300M800 1200H900M800 1300H900M900 1200V1300M900 1200H1000V1300H900" stroke="#4F4F4F" stroke-width="2"/>
<path d="M1000 1200H1100V1300H1000V1200Z" fill="#4F4F4F" fill-opacity="0.0509804" stroke="#4F4F4F" stroke-width="2"/>
<path d="M1100 1200H1200V1300H1100V1200Z" stroke="#4F4F4F" stroke-width="2"/>
<path d="M1200 1200H1300V1300H1200V1200Z" fill="#4F4F4F" fill-opacity="0.862745" stroke="#4F4F4F" stroke-width="2"/>
<path d="M1300 1200H1400V1300H1300V1200Z" fill="#4F4F4F" fill-opacity="0.72549" stroke="#4F4F4F" stroke-width="2"/>
<path d="M1400 1200H1500V1300H1400V1200Z" fill="#4F4F4F" fill-opacity="0.431373" stroke="#4F4F4F" stroke-width="2"/>
<path d="M1600 1200H1500V1300H1600M1600 1200V1300M1600 1200H1700V1300H1600" stroke="#4F4F4F" stroke-width="2"/>
<path d="M1700 1200H1800V1300H1700V1200Z" fill="#4F4F4F" fill-opacity="0.666667" stroke="#4F4F4F" stroke-width="2"/>
<path d="M1800 1200H1900V1300H1800V1200Z" stroke="#4F4F4F" stroke-width="2"/>
<path d="M1900 1200H2000V1300H1900V1200Z" fill="#4F4F4F" fill-opacity="0.435294" stroke="#4F4F4F" stroke-width="2"/>
<path d="M0 1300H100V1400H0V1300Z" fill="#4F4F4F" fill-opacity="0.309804" stroke="#4F4F4F" stroke-width="2"/>
<path d="M100 1300H200V1400H100V1300Z" stroke="#4F4F4F" stroke-width="2"/>
<path d="M200 1300H300V1400H200V1300Z" fill="#4F4F4F" fill-opacity="0.952941" stroke="#4F4F4F" stroke-width="2"/>
<path d="M400 1300H300V1400H400M400 1300V1400M400 1300H500M400 1400H500M500 1300V1400M500 1300H600V1400H500" stroke="#4F4F4F" stroke-width="2"/>
<path d="M600 1300H700V1400H600V1300Z" fill="#4F4F4F" fill-opacity="0.835294" stroke="#4F4F4F" stroke-width="2"/>
<path d="M700 1300H800V1400H700V1300Z" fill="#4F4F4F" fill-opacity="0.776471" stroke="#4F4F4F" stroke-width="2"/>
<path d="M900 1300H800V1400H900M900 1300V1400M900 1300H1000M900 1400H1000M1000 1300V1400M1000 1300H1100V1400H1000" stroke="#4F4F4F" stroke-width="2"/>
<path d="M1100 1300H1200V1400H1100V1300Z" fill="#4F4F4F" fill-opacity="0.0235294" stroke="#4F4F4F" stroke-width="2"/>
<path d="M1200 1300H1300V1400H1200V1300Z" stroke="#4F4F4F" stroke-width="2"/>
<path d="M1300 1300H1400V1400H1300V1300Z" fill="#4F4F4F" fill-opacity="0.121569" stroke="#4F4F4F" stroke-width="2"/>
<path d="M1500 1300H1400V1400H1500M1500 1300V1400M1500 1300H1600M1500 1400H1600M1600 1300V1400M1600 1300H1700M1600 1400H1700M1700 1300V1400M1700 1300H1800V1400H1700" stroke="#4F4F4F" stroke-width="2"/>
<path d="M1800 1300H1900V1400H1800V1300Z" fill="#4F4F4F" fill-opacity="0.87451" stroke="#4F4F4F" stroke-width="2"/>
<path d="M1900 1300H2000V1400H1900V1300Z" stroke="#4F4F4F" stroke-width="2"/>
</g>
</g>
<defs>
<radialGradient id="paint0_radial_1054_94" cx="0" cy="0" r="1" gradientUnits="userSpaceOnUse" gradientTransform="translate(1000 700) scale(1000 700)">
<stop stop-color="white"/>
<stop offset="1" stop-color="white" stop-opacity="0"/>
</radialGradient>
<clipPath id="clip0_1054_94">
<rect width="2000" height="1400" fill="white"/>
</clipPath>
</defs>
</svg>
