<svg viewBox="0 0 2000 1400" xmlns="http://www.w3.org/2000/svg"><mask id="b" x="0" y="0" width="2000" height="1400"><path fill="url(#a)" d="M0 0h2000v1400H0z"/></mask><path fill="#252525" d="M0 0h2000v1400H0z"/><g style="transform-origin:center center" stroke="#4f4f4f" stroke-width="2" mask="url(#b)"><path fill="#4f4f4f91" d="M0 0h100v100H0z"/><path fill="none" d="M100 0h100v100H100zM200 0h100v100H200z"/><path fill="#4f4f4f14" d="M300 0h100v100H300z"/><path fill="none" d="M400 0h100v100H400zM500 0h100v100H500zM600 0h100v100H600zM700 0h100v100H700zM800 0h100v100H800z"/><path fill="#4f4f4f96" d="M900 0h100v100H900z"/><path fill="#4f4f4f51" d="M1000 0h100v100h-100z"/><path fill="none" d="M1100 0h100v100h-100z"/><path fill="#4f4f4f1b" d="M1200 0h100v100h-100z"/><path fill="none" d="M1300 0h100v100h-100zM1400 0h100v100h-100zM1500 0h100v100h-100zM1600 0h100v100h-100zM1700 0h100v100h-100z"/><path fill="#4f4f4f75" d="M1800 0h100v100h-100z"/><path fill="none" d="M1900 0h100v100h-100zM0 100h100v100H0z"/><path fill="#4f4f4f03" d="M100 100h100v100H100z"/><path fill="#4f4f4fdb" d="M200 100h100v100H200z"/><path fill="none" d="M300 100h100v100H300z"/><path fill="#4f4f4ffa" d="M400 100h100v100H400z"/><path fill="none" d="M500 100h100v100H500zM600 100h100v100H600z"/><path fill="#4f4f4f57" d="M700 100h100v100H700z"/><path fill="none" d="M800 100h100v100H800zM900 100h100v100H900z"/><path fill="#4f4f4f3e" d="M1000 100h100v100h-100z"/><path fill="none" d="M1100 100h100v100h-100zM1200 100h100v100h-100zM1300 100h100v100h-100zM1400 100h100v100h-100zM1500 100h100v100h-100zM1600 100h100v100h-100z"/><path fill="#4f4f4f71" d="M1700 100h100v100h-100z"/><path fill="none" d="M1800 100h100v100h-100zM1900 100h100v100h-100zM0 200h100v100H0zM100 200h100v100H100zM200 200h100v100H200z"/><path fill="#4f4f4f3d" d="M300 200h100v100H300z"/><path fill="none" d="M400 200h100v100H400z"/><path fill="#4f4f4f05" d="M500 200h100v100H500z"/><path fill="none" d="M600 200h100v100H600zM700 200h100v100H700zM800 200h100v100H800zM900 200h100v100H900zM1000 200h100v100h-100zM1100 200h100v100h-100zM1200 200h100v100h-100zM1300 200h100v100h-100z"/><path fill="#4f4f4f82" d="M1400 200h100v100h-100z"/><path fill="none" d="M1500 200h100v100h-100zM1600 200h100v100h-100z"/><path fill="#4f4f4f5d" d="M1700 200h100v100h-100z"/><path fill="#4f4f4f8a" d="M1800 200h100v100h-100z"/><path fill="none" d="M1900 200h100v100h-100z"/><path fill="#4f4f4f17" d="M0 300h100v100H0z"/><path fill="none" d="M100 300h100v100H100zM200 300h100v100H200zM300 300h100v100H300z"/><path fill="#4f4f4f43" d="M400 300h100v100H400z"/><path fill="none" d="M500 300h100v100H500zM600 300h100v100H600zM700 300h100v100H700zM800 300h100v100H800z"/><path fill="#4f4f4fa7" d="M900 300h100v100H900z"/><path fill="#4f4f4f68" d="M1000 300h100v100h-100z"/><path fill="none" d="M1100 300h100v100h-100zM1200 300h100v100h-100zM1300 300h100v100h-100zM1400 300h100v100h-100z"/><path fill="#4f4f4fd3" d="M1500 300h100v100h-100z"/><path fill="none" d="M1600 300h100v100h-100z"/><path fill="#4f4f4f98" d="M1700 300h100v100h-100z"/><path fill="#4f4f4f26" d="M1800 300h100v100h-100z"/><path fill="#4f4f4fbf" d="M1900 300h100v100h-100z"/><path fill="none" d="M0 400h100v100H0zM100 400h100v100H100z"/><path fill="#4f4f4f6a" d="M200 400h100v100H200z"/><path fill="none" d="M300 400h100v100H300zM400 400h100v100H400zM500 400h100v100H500zM600 400h100v100H600zM700 400h100v100H700zM800 400h100v100H800z"/><path fill="#4f4f4f31" d="M900 400h100v100H900z"/><path fill="none" d="M1000 400h100v100h-100zM1100 400h100v100h-100z"/><path fill="#4f4f4faf" d="M1200 400h100v100h-100z"/><path fill="#4f4f4f18" d="M1300 400h100v100h-100z"/><path fill="none" d="M1400 400h100v100h-100zM1500 400h100v100h-100zM1600 400h100v100h-100zM1700 400h100v100h-100zM1800 400h100v100h-100zM1900 400h100v100h-100zM0 500h100v100H0z"/><path fill="#4f4f4f35" d="M100 500h100v100H100z"/><path fill="#4f4f4f78" d="M200 500h100v100H200z"/><path fill="none" d="M300 500h100v100H300zM400 500h100v100H400zM500 500h100v100H500z"/><path fill="#4f4f4f53" d="M600 500h100v100H600z"/><path fill="#4f4f4f98" d="M700 500h100v100H700z"/><path fill="none" d="M800 500h100v100H800zM900 500h100v100H900zM1000 500h100v100h-100zM1100 500h100v100h-100zM1200 500h100v100h-100zM1300 500h100v100h-100zM1400 500h100v100h-100zM1500 500h100v100h-100zM1600 500h100v100h-100zM1700 500h100v100h-100zM1800 500h100v100h-100zM1900 500h100v100h-100z"/><path fill="#4f4f4f94" d="M0 600h100v100H0z"/><path fill="#4f4f4f47" d="M100 600h100v100H100z"/><path fill="none" d="M200 600h100v100H200z"/><path fill="#4f4f4fe7" d="M300 600h100v100H300z"/><path fill="#4f4f4fc5" d="M400 600h100v100H400z"/><path fill="#4f4f4f2c" d="M500 600h100v100H500z"/><path fill="none" d="M600 600h100v100H600zM700 600h100v100H700zM800 600h100v100H800zM900 600h100v100H900z"/><path fill="#4f4f4f7c" d="M1000 600h100v100h-100z"/><path fill="none" d="M1100 600h100v100h-100zM1200 600h100v100h-100zM1300 600h100v100h-100zM1400 600h100v100h-100zM1500 600h100v100h-100z"/><path fill="#4f4f4f03" d="M1600 600h100v100h-100z"/><path fill="#4f4f4f64" d="M1700 600h100v100h-100z"/><path fill="#4f4f4f5b" d="M1800 600h100v100h-100z"/><path fill="none" d="M1900 600h100v100h-100z"/><path fill="#4f4f4f1f" d="M0 700h100v100H0z"/><path fill="none" d="M100 700h100v100H100z"/><path fill="#4f4f4fdf" d="M200 700h100v100H200z"/><path fill="none" d="M300 700h100v100H300zM400 700h100v100H400z"/><path fill="#4f4f4fa5" d="M500 700h100v100H500z"/><path fill="#4f4f4f39" d="M600 700h100v100H600z"/><path fill="none" d="M700 700h100v100H700zM800 700h100v100H800z"/><path fill="#4f4f4fde" d="M900 700h100v100H900z"/><path fill="none" d="M1000 700h100v100h-100zM1100 700h100v100h-100z"/><path fill="#4f4f4fa6" d="M1200 700h100v100h-100z"/><path fill="none" d="M1300 700h100v100h-100z"/><path fill="#4f4f4f22" d="M1400 700h100v100h-100z"/><path fill="none" d="M1500 700h100v100h-100zM1600 700h100v100h-100z"/><path fill="#4f4f4f74" d="M1700 700h100v100h-100z"/><path fill="none" d="M1800 700h100v100h-100zM1900 700h100v100h-100zM0 800h100v100H0zM100 800h100v100H100zM200 800h100v100H200zM300 800h100v100H300zM400 800h100v100H400zM500 800h100v100H500zM600 800h100v100H600zM700 800h100v100H700zM800 800h100v100H800zM900 800h100v100H900z"/><path fill="#4f4f4fa8" d="M1000 800h100v100h-100z"/><path fill="#4f4f4f98" d="M1100 800h100v100h-100z"/><path fill="none" d="M1200 800h100v100h-100zM1300 800h100v100h-100zM1400 800h100v100h-100zM1500 800h100v100h-100zM1600 800h100v100h-100zM1700 800h100v100h-100z"/><path fill="#4f4f4f71" d="M1800 800h100v100h-100z"/><path fill="none" d="M1900 800h100v100h-100zM0 900h100v100H0zM100 900h100v100H100zM200 900h100v100H200zM300 900h100v100H300z"/><path fill="#4f4f4fbb" d="M400 900h100v100H400z"/><path fill="none" d="M500 900h100v100H500zM600 900h100v100H600z"/><path fill="#4f4f4ff6" d="M700 900h100v100H700z"/><path fill="none" d="M800 900h100v100H800z"/><path fill="#4f4f4f09" d="M900 900h100v100H900z"/><path fill="none" d="M1000 900h100v100h-100zM1100 900h100v100h-100zM1200 900h100v100h-100z"/><path fill="#4f4f4fe1" d="M1300 900h100v100h-100z"/><path fill="none" d="M1400 900h100v100h-100zM1500 900h100v100h-100zM1600 900h100v100h-100zM1700 900h100v100h-100z"/><path fill="#4f4f4fed" d="M1800 900h100v100h-100z"/><path fill="#4f4f4ff3" d="M1900 900h100v100h-100z"/><path fill="#4f4f4fc0" d="M0 1000h100v100H0z"/><path fill="none" d="M100 1000h100v100H100zM200 1000h100v100H200zM300 1000h100v100H300zM400 1000h100v100H400zM500 1000h100v100H500zM600 1000h100v100H600zM700 1000h100v100H700z"/><path fill="#4f4f4fbd" d="M800 1000h100v100H800z"/><path fill="none" d="M900 1000h100v100H900zM1000 1000h100v100h-100zM1100 1000h100v100h-100zM1200 1000h100v100h-100zM1300 1000h100v100h-100zM1400 1000h100v100h-100zM1500 1000h100v100h-100zM1600 1000h100v100h-100zM1700 1000h100v100h-100zM1800 1000h100v100h-100z"/><path fill="#4f4f4f25" d="M1900 1000h100v100h-100z"/><path fill="none" d="M0 1100h100v100H0z"/><path fill="#4f4f4fbe" d="M100 1100h100v100H100z"/><path fill="#4f4f4fe3" d="M200 1100h100v100H200z"/><path fill="#4f4f4f2d" d="M300 1100h100v100H300z"/><path fill="none" d="M400 1100h100v100H400zM500 1100h100v100H500zM600 1100h100v100H600z"/><path fill="#4f4f4f8e" d="M700 1100h100v100H700z"/><path fill="#4f4f4f23" d="M800 1100h100v100H800z"/><path fill="none" d="M900 1100h100v100H900zM1000 1100h100v100h-100z"/><path fill="#4f4f4f8e" d="M1100 1100h100v100h-100z"/><path fill="none" d="M1200 1100h100v100h-100zM1300 1100h100v100h-100z"/><path fill="#4f4f4f22" d="M1400 1100h100v100h-100z"/><path fill="#4f4f4f36" d="M1500 1100h100v100h-100z"/><path fill="none" d="M1600 1100h100v100h-100zM1700 1100h100v100h-100zM1800 1100h100v100h-100zM1900 1100h100v100h-100z"/><path fill="#4f4f4f0c" d="M0 1200h100v100H0z"/><path fill="none" d="M100 1200h100v100H100z"/><path fill="#4f4f4fe7" d="M200 1200h100v100H200z"/><path fill="none" d="M300 1200h100v100H300zM400 1200h100v100H400zM500 1200h100v100H500zM600 1200h100v100H600zM700 1200h100v100H700zM800 1200h100v100H800zM900 1200h100v100H900z"/><path fill="#4f4f4f0d" d="M1000 1200h100v100h-100z"/><path fill="none" d="M1100 1200h100v100h-100z"/><path fill="#4f4f4fdc" d="M1200 1200h100v100h-100z"/><path fill="#4f4f4fb9" d="M1300 1200h100v100h-100z"/><path fill="#4f4f4f6e" d="M1400 1200h100v100h-100z"/><path fill="none" d="M1500 1200h100v100h-100zM1600 1200h100v100h-100z"/><path fill="#4f4f4faa" d="M1700 1200h100v100h-100z"/><path fill="none" d="M1800 1200h100v100h-100z"/><path fill="#4f4f4f6f" d="M1900 1200h100v100h-100z"/><path fill="#4f4f4f4f" d="M0 1300h100v100H0z"/><path fill="none" d="M100 1300h100v100H100z"/><path fill="#4f4f4ff3" d="M200 1300h100v100H200z"/><path fill="none" d="M300 1300h100v100H300zM400 1300h100v100H400zM500 1300h100v100H500z"/><path fill="#4f4f4fd5" d="M600 1300h100v100H600z"/><path fill="#4f4f4fc6" d="M700 1300h100v100H700z"/><path fill="none" d="M800 1300h100v100H800zM900 1300h100v100H900zM1000 1300h100v100h-100z"/><path fill="#4f4f4f06" d="M1100 1300h100v100h-100z"/><path fill="none" d="M1200 1300h100v100h-100z"/><path fill="#4f4f4f1f" d="M1300 1300h100v100h-100z"/><path fill="none" d="M1400 1300h100v100h-100zM1500 1300h100v100h-100zM1600 1300h100v100h-100zM1700 1300h100v100h-100z"/><path fill="#4f4f4fdf" d="M1800 1300h100v100h-100z"/><path fill="none" d="M1900 1300h100v100h-100z"/></g><defs><radialGradient id="a"><stop offset="0" stop-color="#fff"/><stop offset="1" stop-color="#fff" stop-opacity="0"/></radialGradient></defs></svg>